<?xml version="1.0" encoding="UTF-8"?>
<!DOCTYPE svg PUBLIC "-//W3C//DTD SVG 1.1//EN" "http://www.w3.org/Graphics/SVG/1.1/DTD/svg11.dtd">
<!-- Creator: CorelDRAW 2019 (64-Bit) -->
<svg xmlns="http://www.w3.org/2000/svg" xml:space="preserve" width="29.7cm" height="21cm" version="1.1" style="shape-rendering:geometricPrecision; text-rendering:geometricPrecision; image-rendering:optimizeQuality; fill-rule:evenodd; clip-rule:evenodd"
viewBox="0 0 29700 21000"
 xmlns:xlink="http://www.w3.org/1999/xlink">
 <defs>
  <style type="text/css">
   <![CDATA[
    .fil1 {fill:#E32531}
    .fil2 {fill:#1A1A1A;fill-rule:nonzero}
    .fil0 {fill:#004684;fill-opacity:0.058824}
   ]]>
  </style>
 </defs>
 <g id="Слой_x0020_1">
  <metadata id="CorelCorpID_0Corel-Layer"/>
  <g id="_1603677667072">
   <path class="fil0" d="M6893 2170c1502,0 2719,1217 2719,2719 0,1502 -1217,2719 -2719,2719 -1502,0 -2719,-1217 -2719,-2719 0,-1502 1217,-2719 2719,-2719z"/>
   <path class="fil1" d="M5098 3848c14,119 38,201 171,203 379,5 717,-63 958,180 308,310 192,800 -206,973 -123,53 -27,147 17,228 44,81 91,162 136,242 90,162 184,322 273,484 96,176 231,300 440,319 377,36 759,-313 513,-843 -64,-139 -197,-338 -278,-479 -184,-320 -372,-638 -557,-958 -92,-160 -186,-319 -279,-478 -97,-166 -163,-319 -344,-413 -406,-211 -900,71 -846,541z"/>
   <path class="fil1" d="M4955 5997c14,-110 4,-1590 4,-1750 0,-56 16,-150 -52,-170 -68,-21 -95,34 -123,83l-486 834c-109,184 -217,370 -324,556 -124,214 -182,444 -39,668 276,433 954,294 1020,-221z"/>
   <path class="fil2" d="M8385 3985l130 383 -273 0 140 -383 3 0zm-66 -124l-315 814 122 0 86 -228 330 0 82 228 213 0 -295 -814 -223 0zm1255 143l20 -91c0,0 -141,-64 -292,-64 -273,0 -432,169 -432,426 0,252 147,415 439,415 243,0 334,-150 334,-150l-64 -60c0,0 -86,116 -242,116 -162,0 -245,-84 -245,-327 0,-243 76,-326 235,-326 108,0 246,61 246,61zm840 0l20 -91c0,0 -141,-64 -292,-64 -273,0 -432,169 -432,426 0,252 147,415 439,415 243,0 334,-150 334,-150l-64 -60c0,0 -86,116 -242,116 -162,0 -245,-84 -245,-327 0,-243 76,-326 235,-326 108,0 246,61 246,61zm776 266c0,230 -60,331 -210,331 -150,0 -207,-100 -207,-331 0,-229 61,-331 207,-331 147,0 210,101 210,331zm223 0c0,-256 -153,-421 -433,-421 -279,0 -429,165 -429,421 0,256 150,420 429,420 280,0 433,-164 433,-420zm366 -408l-201 0 0 814 643 0 34 219 109 0 41 -309 -118 0 0 -724 -201 0 0 724 -306 0 0 -724zm1532 0l-187 0 -13 28 -367 594 -3 0 10 -81 0 -540 -201 0 0 814 190 0 12 -28 366 -589 1 0 -9 90 0 526 201 0 0 -814zm521 124l130 383 -273 0 140 -383 3 0zm-66 -124l-315 814 122 0 86 -228 330 0 82 228 213 0 -295 -814 -223 0zm857 0l-201 0 0 814 643 0 34 219 109 0 41 -309 -118 0 0 -724 -201 0 0 724 -306 0 0 -724zm1532 0l-187 0 -13 28 -367 594 -3 0 10 -81 0 -540 -201 0 0 814 190 0 12 -28 366 -589 1 0 -9 90 0 526 201 0 0 -814zm986 0l-187 0 -13 28 -367 594 -3 0 10 -81 0 -540 -201 0 0 814 190 0 12 -28 366 -589 1 0 -9 90 0 526 201 0 0 -814zm868 81c92,0 143,48 143,202 0,155 -52,197 -143,197l-70 0 0 -398 70 0zm-271 733l201 0 0 -254 93 0c153,0 337,-76 337,-284 0,-187 -131,-276 -341,-276l-290 0 0 814zm1015 -690l130 383 -273 0 140 -383 3 0zm-66 -124l-315 814 122 0 86 -228 330 0 82 228 213 0 -295 -814 -223 0zm652 129c0,0 114,-54 204,-54 98,0 139,36 139,135 0,113 -50,153 -96,154l-153 -11 0 96 140 -10c79,0 127,30 127,143 0,114 -66,153 -159,153 -159,0 -230,-103 -230,-103l-61 65c0,0 61,130 316,130 213,0 360,-98 360,-243 0,-116 -79,-169 -181,-190 76,-33 152,-91 152,-193 0,-129 -111,-214 -314,-214 -139,0 -262,56 -262,56l19 85zm951 233l0 -281 82 0c80,0 144,38 144,140 0,110 -64,140 -106,140l-120 0zm130 75c74,0 130,34 130,137 0,110 -67,159 -169,159l-90 0 0 -296 130 0zm-331 377l296 0c248,0 369,-96 369,-234 0,-98 -77,-162 -182,-190 71,-31 141,-86 141,-178 0,-108 -101,-212 -335,-212l-289 0 0 814zm1591 -814l-187 0 -13 28 -367 594 -3 0 10 -81 0 -540 -201 0 0 814 190 0 12 -28 366 -589 1 0 -9 90 0 526 201 0 0 -814zm844 0l-712 0 0 90 255 0 0 724 203 0 0 -724 254 0 0 -90zm894 0l-187 0 -13 28 -367 594 -3 0 10 -81 0 -540 -201 0 0 814 190 0 12 -28 366 -589 1 0 -9 90 0 526 201 0 0 -814zm388 252c0,-115 47,-169 118,-169l134 0 0 331 -133 0c-74,0 -120,-51 -120,-162zm455 -252l-344 0c-175,0 -313,83 -313,256 0,119 79,190 176,223l-197 336 207 0 160 -314 108 0 0 314 203 0 0 -814z"/>
   <path class="fil2" d="M8058 5866l107 0 0 -203 33 -23 135 226 136 0 -188 -307 153 -197 -74 0 -148 200 -46 33 0 -233 -107 0 0 503zm629 -453c49,0 76,29 76,125 0,96 -28,122 -76,122l-37 0 0 -246 37 0zm-144 453l107 0 0 -157 50 0c81,0 179,-47 179,-176 0,-115 -70,-170 -181,-170l-154 0 0 503zm726 -56l-206 0 0 -172 172 0 0 -54 -172 0 0 -166 195 0 0 -56 -302 0 0 503 313 0 0 -56zm346 -392l0 392 -180 0c37,-83 57,-185 59,-392l121 0zm-184 -56c0,247 -17,359 -60,448l-52 0 9 191 53 0 31 -136 276 0 17 136 60 0 19 -191 -63 0 0 -448 -290 0zm835 0l-99 0 -7 17 -195 367 -2 0 5 -50 0 -334 -107 0 0 503 101 0 6 -17 194 -364 1 0 -5 56 0 325 107 0 0 -503zm448 0l-378 0 0 56 136 0 0 448 108 0 0 -448 135 0 0 -56zm459 0l-107 0 0 220 -174 0 0 -220 -107 0 0 503 107 0 0 -229 174 0 0 229 107 0 0 -503zm427 252c0,143 -32,204 -112,204 -80,0 -110,-62 -110,-204 0,-142 33,-204 110,-204 78,0 112,63 112,204zm119 0c0,-158 -81,-260 -230,-260 -148,0 -228,102 -228,260 0,158 80,259 228,259 149,0 230,-101 230,-259zm294 -337c-37,0 -45,-17 -45,-30 0,-9 3,-16 3,-16l0 -9 -81 7c0,0 -6,95 122,95 129,0 123,-95 123,-95l-81 -7 0 9c0,0 3,7 3,16 0,13 -8,30 -46,30zm198 84l-99 0 -7 17 -195 367 -2 0 5 -50 0 -334 -107 0 0 503 101 0 6 -17 194 -364 1 0 -5 56 0 325 107 0 0 -503zm693 0l-376 0 0 503 107 0 0 -448 163 0 0 448 107 0 0 -503zm427 252c0,143 -32,204 -112,204 -80,0 -110,-62 -110,-204 0,-142 33,-204 110,-204 78,0 112,63 112,204zm119 0c0,-158 -81,-260 -230,-260 -148,0 -228,102 -228,260 0,158 80,259 228,259 149,0 230,-101 230,-259zm417 -252l-378 0 0 56 136 0 0 448 108 0 0 -448 135 0 0 -56zm215 50c49,0 76,29 76,125 0,96 -28,122 -76,122l-37 0 0 -246 37 0zm-144 453l107 0 0 -157 50 0c81,0 179,-47 179,-176 0,-115 -70,-170 -181,-170l-154 0 0 503zm726 -56l-206 0 0 -172 172 0 0 -54 -172 0 0 -166 195 0 0 -56 -302 0 0 503 313 0 0 -56zm234 -206c58,0 89,21 89,103 0,82 -28,108 -88,108l-34 0 0 -211 33 0zm142 -242l-283 0 0 503 143 0c131,0 198,-61 198,-162 0,-101 -76,-149 -201,-149l-33 0 0 -137 175 0 0 -56zm550 0l-99 0 -7 17 -195 367 -2 0 5 -50 0 -334 -107 0 0 503 101 0 6 -17 194 -364 1 0 -5 56 0 325 107 0 0 -503zm448 0l-378 0 0 56 136 0 0 448 108 0 0 -448 135 0 0 -56zm383 448l-206 0 0 -172 172 0 0 -54 -172 0 0 -166 195 0 0 -56 -302 0 0 503 313 0 0 -56zm185 -448c0,318 -35,441 -106,441 -12,0 -23,-4 -23,-4l-4 68c0,0 12,6 42,6 95,0 152,-145 153,-455l107 0 0 448 107 0 0 -503 -275 0zm538 242c58,0 87,24 87,103 0,78 -26,108 -86,108l-37 0 0 -211 36 0zm-143 262l146 0c131,0 194,-61 194,-162 0,-101 -74,-149 -198,-149l-36 0 0 -193 -107 0 0 503zm770 -415l11 -57c0,0 -75,-40 -155,-40 -145,0 -229,105 -229,263 0,156 78,256 233,256 129,0 177,-93 177,-93l-34 -37c0,0 -46,72 -129,72 -86,0 -130,-52 -130,-202 0,-150 40,-201 125,-201 57,0 131,38 131,38zm105 415l107 0 0 -203 33 -23 135 226 136 0 -188 -307 153 -197 -74 0 -148 200 -46 33 0 -233 -107 0 0 503zm777 -251c0,143 -32,204 -112,204 -80,0 -110,-62 -110,-204 0,-142 33,-204 110,-204 78,0 112,63 112,204zm119 0c0,-158 -81,-260 -230,-260 -148,0 -228,102 -228,260 0,158 80,259 228,259 149,0 230,-101 230,-259zm294 -337c-37,0 -45,-17 -45,-30 0,-9 3,-16 3,-16l0 -9 -81 7c0,0 -6,95 122,95 129,0 123,-95 123,-95l-81 -7 0 9c0,0 3,7 3,16 0,13 -8,30 -46,30zm198 84l-99 0 -7 17 -195 367 -2 0 5 -50 0 -334 -107 0 0 503 101 0 6 -17 194 -364 1 0 -5 56 0 325 107 0 0 -503zm317 503l107 0 0 -203 33 -23 135 226 136 0 -188 -307 153 -197 -74 0 -148 200 -46 33 0 -233 -107 0 0 503zm777 -251c0,143 -32,204 -112,204 -80,0 -110,-62 -110,-204 0,-142 33,-204 110,-204 78,0 112,63 112,204zm119 0c0,-158 -81,-260 -230,-260 -148,0 -228,102 -228,260 0,158 80,259 228,259 149,0 230,-101 230,-259zm395 0c0,143 -32,204 -112,204 -80,0 -110,-62 -110,-204 0,-142 33,-204 110,-204 78,0 112,63 112,204zm119 0c0,-158 -81,-260 -230,-260 -148,0 -228,102 -228,260 0,158 80,259 228,259 149,0 230,-101 230,-259zm464 -252l-376 0 0 503 107 0 0 -448 163 0 0 448 107 0 0 -503zm432 448l-206 0 0 -172 172 0 0 -54 -172 0 0 -166 195 0 0 -56 -302 0 0 503 313 0 0 -56zm237 -397c49,0 76,29 76,125 0,96 -28,122 -76,122l-37 0 0 -246 37 0zm-144 453l107 0 0 -157 50 0c81,0 179,-47 179,-176 0,-115 -70,-170 -181,-170l-154 0 0 503zm539 -427l69 237 -145 0 74 -237 2 0zm-35 -77l-167 503 65 0 46 -141 175 0 43 141 113 0 -156 -503 -119 0zm455 0l-107 0 0 503 342 0 18 136 58 0 22 -191 -63 0 0 -448 -107 0 0 448 -163 0 0 -448zm814 0l-99 0 -7 17 -195 367 -2 0 5 -50 0 -334 -107 0 0 503 101 0 6 -17 194 -364 1 0 -5 56 0 325 107 0 0 -503zm524 0l-99 0 -7 17 -195 367 -2 0 5 -50 0 -334 -107 0 0 503 101 0 6 -17 194 -364 1 0 -5 56 0 325 107 0 0 -503z"/>
  </g>
  <path class="fil0" d="M15241 11127c1899,0 3439,1540 3439,3439 0,1899 -1540,3439 -3439,3439 -1899,0 -3439,-1540 -3439,-3439 0,-1899 1540,-3439 3439,-3439z"/>
  <g id="_1603677666944">
   <path class="fil1" d="M15507 10431c17,149 48,253 215,255 477,6 902,-79 1206,226 388,391 241,1006 -259,1224 -154,67 -34,185 22,287 56,102 115,203 171,305 113,204 231,405 343,609 121,221 291,377 553,402 475,45 954,-393 646,-1060 -81,-175 -247,-425 -350,-603 -232,-402 -468,-803 -700,-1205 -116,-201 -234,-401 -351,-602 -122,-209 -205,-402 -432,-520 -511,-265 -1132,90 -1064,680z"/>
   <path class="fil1" d="M15327 13134c18,-138 5,-2000 5,-2201 0,-70 20,-188 -65,-214 -85,-26 -120,42 -155,104l-611 1049c-137,231 -273,466 -408,699 -155,269 -228,559 -49,841 347,545 1200,369 1283,-278z"/>
  </g>
  <path class="fil2" d="M9853 14580l104 306 -218 0 112 -306 2 0zm-52 -99l-251 650 98 0 69 -182 263 0 65 182 170 0 -235 -650 -178 0zm1002 114l16 -73c0,0 -113,-51 -233,-51 -218,0 -344,135 -344,340 0,201 118,331 350,331 194,0 266,-120 266,-120l-51 -48c0,0 -69,93 -193,93 -129,0 -195,-67 -195,-261 0,-194 60,-260 187,-260 86,0 197,49 197,49zm670 0l16 -73c0,0 -113,-51 -233,-51 -218,0 -344,135 -344,340 0,201 118,331 350,331 194,0 266,-120 266,-120l-51 -48c0,0 -69,93 -193,93 -129,0 -195,-67 -195,-261 0,-194 61,-260 187,-260 86,0 197,49 197,49zm619 212c0,184 -48,264 -168,264 -120,0 -165,-80 -165,-264 0,-183 49,-264 165,-264 118,0 168,81 168,264zm178 0c0,-204 -122,-336 -346,-336 -222,0 -342,132 -342,336 0,204 120,335 342,335 223,0 346,-131 346,-335zm292 -326l-161 0 0 650 513 0 27 175 87 0 33 -247 -94 0 0 -578 -161 0 0 578 -244 0 0 -578zm1223 0l-149 0 -10 22 -293 474 -2 0 8 -65 0 -431 -161 0 0 650 151 0 9 -22 292 -470 1 0 -7 72 0 420 161 0 0 -650zm415 99l104 306 -218 0 112 -306 2 0zm-52 -99l-251 650 98 0 69 -182 263 0 65 182 170 0 -235 -650 -178 0zm684 0l-161 0 0 650 513 0 27 175 87 0 33 -247 -94 0 0 -578 -161 0 0 578 -244 0 0 -578zm1223 0l-149 0 -10 22 -293 474 -2 0 8 -65 0 -431 -161 0 0 650 151 0 9 -22 292 -470 1 0 -7 72 0 420 161 0 0 -650zm786 0l-149 0 -10 22 -293 474 -2 0 8 -65 0 -431 -161 0 0 650 151 0 9 -22 292 -470 1 0 -7 72 0 420 161 0 0 -650zm692 65c73,0 114,38 114,161 0,124 -42,157 -114,157l-56 0 0 -318 56 0zm-216 585l161 0 0 -203 74 0c122,0 269,-61 269,-227 0,-149 -105,-220 -272,-220l-232 0 0 650zm810 -551l104 306 -218 0 112 -306 2 0zm-52 -99l-251 650 98 0 69 -182 263 0 65 182 170 0 -235 -650 -178 0zm520 103c0,0 91,-43 163,-43 78,0 111,29 111,108 0,90 -40,122 -77,123l-122 -9 0 77 112 -8c63,0 101,24 101,114 0,91 -52,122 -127,122 -127,0 -184,-82 -184,-82l-49 52c0,0 49,104 252,104 170,0 287,-78 287,-194 0,-93 -63,-135 -144,-152 61,-26 121,-73 121,-154 0,-103 -88,-171 -250,-171 -111,0 -209,45 -209,45l15 68zm759 186l0 -224 65 0c64,0 115,30 115,112 0,88 -51,112 -85,112l-95 0zm104 60c59,0 104,27 104,109 0,88 -54,127 -135,127l-72 0 0 -236 104 0zm-264 301l236 0c198,0 294,-77 294,-187 0,-78 -62,-129 -145,-152 57,-25 113,-69 113,-142 0,-86 -80,-169 -268,-169l-230 0 0 650zm1269 -650l-149 0 -10 22 -293 474 -2 0 8 -65 0 -431 -161 0 0 650 151 0 9 -22 292 -470 1 0 -7 72 0 420 161 0 0 -650zm674 0l-568 0 0 72 204 0 0 578 162 0 0 -578 202 0 0 -72zm713 0l-149 0 -10 22 -293 474 -2 0 8 -65 0 -431 -161 0 0 650 151 0 9 -22 292 -470 1 0 -7 72 0 420 161 0 0 -650zm309 201c0,-92 37,-135 94,-135l107 0 0 264 -106 0c-59,0 -95,-41 -95,-129zm363 -201l-275 0c-140,0 -250,66 -250,204 0,95 63,152 141,178l-157 268 165 0 128 -251 86 0 0 251 162 0 0 -650z"/>
  <path class="fil2" d="M11368 16203l54 0 0 -156 53 -41 155 197 67 0 -183 -235 161 -190 -43 0 -155 186 -56 46 0 -231 -54 0 0 425zm528 -396c61,0 98,32 98,108 0,87 -45,112 -99,112l-50 0 0 -220 51 0zm-105 396l54 0 0 -149 58 0c71,0 148,-35 148,-141 0,-90 -57,-135 -149,-135l-110 0 0 425zm613 -31l-209 0 0 -169 177 0 0 -30 -177 0 0 -163 194 0 0 -31 -247 0 0 425 263 0 0 -31zm331 -362l0 362 -202 0c35,-67 57,-163 59,-362l143 0zm-181 -31c0,224 -22,325 -59,394l-38 0 4 142 32 0 13 -110 286 0 8 110 35 0 8 -142 -54 0 0 -394 -234 0zm705 0l-50 0 -4 7 -223 356 -1 0 4 -22 0 -342 -54 0 0 425 51 0 4 -7 223 -356 1 0 -3 24 0 339 53 0 0 -425zm387 0l-316 0 0 31 131 0 0 394 54 0 0 -394 131 0 0 -31zm389 0l-54 0 0 191 -210 0 0 -191 -54 0 0 425 54 0 0 -204 210 0 0 204 54 0 0 -425zm438 213c0,122 -50,187 -141,187 -90,0 -139,-65 -139,-187 0,-122 50,-188 139,-188 90,0 141,66 141,188zm57 0c0,-135 -73,-219 -198,-219 -124,0 -196,84 -196,219 0,135 73,218 196,218 124,0 198,-83 198,-218zm265 -279c-57,0 -57,-40 -57,-40l0 -3 -42 4c0,0 7,65 100,65 93,0 100,-65 100,-65l-42 -4 0 3c0,0 -1,40 -58,40zm163 65l-50 0 -4 7 -223 356 -1 0 4 -22 0 -342 -54 0 0 425 51 0 4 -7 223 -356 1 0 -3 24 0 339 53 0 0 -425zm604 0l-307 0 0 425 54 0 0 -394 199 0 0 394 54 0 0 -425zm438 213c0,122 -50,187 -141,187 -90,0 -139,-65 -139,-187 0,-122 50,-188 139,-188 90,0 141,66 141,188zm57 0c0,-135 -73,-219 -198,-219 -124,0 -196,84 -196,219 0,135 73,218 196,218 124,0 198,-83 198,-218zm355 -213l-316 0 0 31 131 0 0 394 54 0 0 -394 131 0 0 -31zm176 29c61,0 98,32 98,108 0,87 -45,112 -99,112l-50 0 0 -220 51 0zm-105 396l54 0 0 -149 58 0c71,0 148,-35 148,-141 0,-90 -57,-135 -149,-135l-110 0 0 425zm613 -31l-209 0 0 -169 177 0 0 -30 -177 0 0 -163 194 0 0 -31 -247 0 0 425 263 0 0 -31zm202 -195c73,0 116,27 116,96 0,70 -38,101 -114,101l-54 0 0 -197 53 0zm125 -199l-232 0 0 425 110 0c111,0 167,-49 167,-131 0,-83 -65,-122 -170,-122l-53 0 0 -140 178 0 0 -31zm473 0l-50 0 -4 7 -223 356 -1 0 4 -22 0 -342 -54 0 0 425 51 0 4 -7 223 -356 1 0 -3 24 0 339 53 0 0 -425zm387 0l-316 0 0 31 131 0 0 394 54 0 0 -394 131 0 0 -31zm334 394l-209 0 0 -169 177 0 0 -30 -177 0 0 -163 194 0 0 -31 -247 0 0 425 263 0 0 -31zm163 -394c0,267 -35,393 -100,393 -10,0 -18,-3 -18,-3l-2 35c0,0 8,4 29,4 78,0 126,-134 127,-398l134 0 0 394 53 0 0 -425 -224 0zm466 199c73,0 114,28 114,96 0,69 -37,101 -113,101l-56 0 0 -197 54 0zm-108 226l111 0c111,0 166,-49 166,-131 0,-83 -64,-122 -169,-122l-54 0 0 -171 -54 0 0 425zm670 -363l6 -31c0,0 -62,-36 -135,-36 -120,0 -198,86 -198,222 0,134 74,215 201,215 109,0 153,-76 153,-76l-20 -21c0,0 -42,64 -127,64 -93,0 -150,-59 -150,-184 0,-126 57,-188 146,-188 62,0 123,35 123,35zm109 363l54 0 0 -156 53 -41 155 197 67 0 -183 -235 161 -190 -43 0 -155 186 -56 46 0 -231 -54 0 0 425zm714 -212c0,122 -50,187 -141,187 -90,0 -139,-65 -139,-187 0,-122 50,-188 139,-188 90,0 141,66 141,188zm57 0c0,-135 -73,-219 -198,-219 -124,0 -196,84 -196,219 0,135 73,218 196,218 124,0 198,-83 198,-218zm265 -279c-57,0 -57,-40 -57,-40l0 -3 -42 4c0,0 7,65 100,65 93,0 100,-65 100,-65l-42 -4 0 3c0,0 -1,40 -58,40zm163 65l-50 0 -4 7 -223 356 -1 0 4 -22 0 -342 -54 0 0 425 51 0 4 -7 223 -356 1 0 -3 24 0 339 53 0 0 -425zm-6922 1205l54 0 0 -156 53 -41 155 197 67 0 -183 -235 161 -190 -43 0 -155 186 -56 46 0 -231 -54 0 0 425zm714 -212c0,122 -50,187 -141,187 -90,0 -139,-65 -139,-187 0,-122 50,-188 139,-188 90,0 141,66 141,188zm57 0c0,-135 -73,-219 -198,-219 -124,0 -196,84 -196,219 0,135 73,218 196,218 124,0 198,-83 198,-218zm405 0c0,122 -50,187 -141,187 -90,0 -139,-65 -139,-187 0,-122 50,-188 139,-188 90,0 141,66 141,188zm57 0c0,-135 -73,-219 -198,-219 -124,0 -196,84 -196,219 0,135 73,218 196,218 124,0 198,-83 198,-218zm407 -213l-307 0 0 425 54 0 0 -394 199 0 0 394 54 0 0 -425zm396 394l-209 0 0 -169 177 0 0 -30 -177 0 0 -163 194 0 0 -31 -247 0 0 425 263 0 0 -31zm200 -365c61,0 98,32 98,108 0,87 -45,112 -99,112l-50 0 0 -220 51 0zm-105 396l54 0 0 -149 58 0c71,0 148,-35 148,-141 0,-90 -57,-135 -149,-135l-110 0 0 425zm449 -387l80 229 -161 0 81 -229zm-22 -38l-155 425 37 0 48 -131 180 0 48 131 56 0 -152 -425 -63 0zm350 0l-54 0 0 425 308 0 8 110 35 0 9 -142 -53 0 0 -394 -54 0 0 394 -199 0 0 -394zm724 0l-50 0 -4 7 -223 356 -1 0 4 -22 0 -342 -54 0 0 425 51 0 4 -7 223 -356 1 0 -3 24 0 339 53 0 0 -425zm461 0l-50 0 -4 7 -223 356 -1 0 4 -22 0 -342 -54 0 0 425 51 0 4 -7 223 -356 1 0 -3 24 0 339 53 0 0 -425z"/>
 </g>
</svg>
